<?xml version="1.0" standalone="no"?>
<svg viewBox="0 0 200 200" xmlns="http://www.w3.org/2000/svg">
  <path fill="#C77DFF" d="M45.4,-73.7C58.2,-71.2,67.5,-57.8,71.1,-43.6C74.7,-29.5,72.6,-14.8,70.4,-1.3C68.2,12.2,65.8,24.4,59,33C52.2,41.7,41.1,46.7,30.5,55.8C20,64.8,10,77.7,-2.5,82C-14.9,86.3,-29.8,81.9,-38.8,72C-47.9,62.1,-51,46.7,-58.9,33.7C-66.9,20.8,-79.6,10.4,-78.4,0.7C-77.2,-9,-62.1,-18.1,-51.4,-26.2C-40.7,-34.3,-34.4,-41.4,-26.5,-46.7C-18.7,-52,-9.3,-55.5,3.5,-61.5C16.3,-67.6,32.6,-76.1,45.4,-73.7Z" transform="translate(100 100)" />
</svg>
