<svg xmlns="http://www.w3.org/2000/svg" id="mgg-logo" width="250" height="64.04" viewBox="0 0 250 64.04">
    <defs>
        <linearGradient id="linear-gradient" x2="1" y1=".5" y2=".5" gradientUnits="objectBoundingBox">
            <stop offset="0" stop-color="#287ec3"/>
            <stop offset="1" stop-color="#1b71b9"/>
        </linearGradient>
        <style>
            .cls-1{fill:#003a8e}
        </style>
    </defs>
    <g id="Group_339" transform="translate(72.978 19.386)">
        <path id="Path_13" d="M198.644 261.478v-20.761h5.783l5.606 14.088h.177l4.923-14.088h5.813v20.761h-4.538v-11.745h-.178l-4.33 11.745h-3.766l-4.8-12.219h-.178v12.219z" class="cls-1" transform="translate(-198.644 -239.234)"/>
        <path id="Path_14" d="M237.415 249.819a7.772 7.772 0 0 1 5.813-2.313c5.161 0 7.859 3.8 7.859 8.155V257H239.55a3.925 3.925 0 0 0 7.236 1.542h4.153c-.713 3.322-3.619 5.4-7.8 5.4a7.827 7.827 0 0 1-7.948-8.126 8.267 8.267 0 0 1 2.224-5.997zm9.4 4.122a3.336 3.336 0 0 0-3.589-2.936 3.505 3.505 0 0 0-3.589 2.936z" class="cls-1" transform="translate(-209.802 -241.307)"/>
        <path id="Path_15" d="M263.106 247.094a6.511 6.511 0 0 1 5.161-2.313 5.2 5.2 0 0 1 4.419 2.165h.238v-8.364h4.6v22.244h-4.567v-1.78h-.238a4.919 4.919 0 0 1-4.33 2.165 6.727 6.727 0 0 1-5.25-2.224 8.465 8.465 0 0 1-1.987-5.9 8.887 8.887 0 0 1 1.954-5.993zm6.317 9.965c2.165 0 3.589-1.72 3.589-4.063 0-2.462-1.483-4.064-3.618-4.064s-3.589 1.661-3.589 4.064 1.454 4.063 3.618 4.063z" class="cls-1" transform="translate(-217.729 -238.582)"/>
        <path id="Path_16" d="M306.149 242.327a9.526 9.526 0 0 1 3.559 5.457h-5.189a5.178 5.178 0 0 0-5.1-3.114 5.832 5.832 0 0 0-4.419 1.779 6.334 6.334 0 0 0-1.661 4.478 6.576 6.576 0 0 0 1.661 4.6 5.831 5.831 0 0 0 4.419 1.78c2.847 0 5.072-1.483 5.457-3.471h-5.664v-3.855h10.885a4.876 4.876 0 0 1 .029.652 11.083 11.083 0 0 1-2.788 7.92 10.279 10.279 0 0 1-7.919 3.143c-6.495 0-10.944-4.626-10.944-10.766a11.095 11.095 0 0 1 17.676-8.6z" class="cls-1" transform="translate(-226.072 -239.064)"/>
        <path id="Path_17" d="M324.123 238.582h4.6v16.787c0 .948.445 1.423 1.3 1.423h.563v4.034h-1.572c-3.114 0-4.893-1.839-4.893-4.924z" class="cls-1" transform="translate(-236.957 -238.582)"/>
        <path id="Path_18" d="M343.934 247.506a8.2 8.2 0 0 1 6.05 2.372 7.916 7.916 0 0 1 2.373 5.843 8.441 8.441 0 1 1-8.423-8.215zm-.03 12.278a4.075 4.075 0 1 0-3.766-4.063 3.817 3.817 0 0 0 3.762 4.063z" class="cls-1" transform="translate(-240.426 -241.307)"/>
        <path id="Path_19" d="M364.128 260.826v-22.244h4.6v8.364h.237a5.125 5.125 0 0 1 4.419-2.165 6.347 6.347 0 0 1 5.1 2.313 8.749 8.749 0 0 1 1.987 5.991 8.48 8.48 0 0 1-2.017 5.9 6.643 6.643 0 0 1-5.19 2.224 4.943 4.943 0 0 1-4.36-2.165h-.237v1.78zm8.1-3.767c2.135 0 3.589-1.661 3.589-4.063s-1.454-4.064-3.589-4.064-3.589 1.573-3.589 4.064c-.002 2.343 1.421 4.063 3.587 4.063z" class="cls-1" transform="translate(-249.173 -238.582)"/>
        <path id="Path_20" d="M392.685 249.819a6.51 6.51 0 0 1 5.161-2.313 5.2 5.2 0 0 1 4.419 2.165h.238v-1.779h4.6v15.66h-4.567v-1.78h-.238a4.919 4.919 0 0 1-4.33 2.165 6.727 6.727 0 0 1-5.25-2.224 8.464 8.464 0 0 1-1.987-5.9 8.886 8.886 0 0 1 1.954-5.994zm6.315 9.965c2.165 0 3.589-1.72 3.589-4.063 0-2.462-1.483-4.064-3.618-4.064s-3.588 1.661-3.588 4.064 1.455 4.063 3.617 4.063z" class="cls-1" transform="translate(-257.295 -241.307)"/>
        <path id="Path_21" d="M419.163 238.582h4.6v16.787c0 .948.445 1.423 1.3 1.423h.563v4.034h-1.572c-3.113 0-4.893-1.839-4.893-4.924z" class="cls-1" transform="translate(-265.977 -238.582)"/>
    </g>
    <g id="Group_340" transform="translate(183.568 47.087)">
        <path id="Path_22" d="M363.911 278.46a5.808 5.808 0 0 1 3.472 1.062 5.532 5.532 0 0 1 2.073 2.764h-1.516a4.123 4.123 0 0 0-4.028-2.544 4.84 4.84 0 0 0 .034 9.674 4.121 4.121 0 0 0 4.382-3.944h-4.788v-1.2h6.321v.068a7.921 7.921 0 0 1-.3 2.241 5.608 5.608 0 0 1-5.63 4.112 6.118 6.118 0 0 1-.017-12.236z" class="cls-1" transform="translate(-357.844 -278.46)"/>
        <path id="Path_23" d="M378.54 291.906v-8.763h1.315v1.634h.1a2.567 2.567 0 0 1 .859-1.129 2.4 2.4 0 0 1 1.534-.505h.742v1.331h-.725c-1.567 0-2.494 1.18-2.494 2.915v4.517z" class="cls-1" transform="translate(-364.163 -279.89)"/>
        <path id="Path_24" d="M387.595 284.141a4.447 4.447 0 0 1 3.27-1.314 4.393 4.393 0 0 1 3.269 1.314 4.514 4.514 0 0 1 1.3 3.287 4.576 4.576 0 1 1-7.837-3.287zm.943 5.731a3.3 3.3 0 0 0 4.618 0 3.714 3.714 0 0 0 0-4.871 3.052 3.052 0 0 0-2.309-.961 3.009 3.009 0 0 0-2.309.977 3.747 3.747 0 0 0 0 4.855z" class="cls-1" transform="translate(-366.526 -279.793)"/>
        <path id="Path_25" d="M402.609 283.143h1.331v5.46a2.2 2.2 0 0 0 .658 1.668 2.235 2.235 0 0 0 1.6.64 2.394 2.394 0 0 0 1.753-.706 2.481 2.481 0 0 0 .707-1.8v-5.258h1.332v8.763h-1.332v-1.281h-.1a2.836 2.836 0 0 1-2.68 1.5 3.029 3.029 0 0 1-2.377-.978 3.619 3.619 0 0 1-.893-2.494z" class="cls-1" transform="translate(-371.512 -279.89)"/>
        <path id="Path_26" d="M417.361 295.686v-12.639h1.281v1.382h.1a2.668 2.668 0 0 1 .607-.691 3.432 3.432 0 0 1 2.426-.91 4.105 4.105 0 0 1 3.134 1.281 4.556 4.556 0 0 1 1.231 3.3 4.658 4.658 0 0 1-1.213 3.32 3.986 3.986 0 0 1-3.051 1.3 3.68 3.68 0 0 1-2.157-.658 3.955 3.955 0 0 1-.927-.977h-.1v5.291zm2.158-5.78a2.932 2.932 0 0 0 2.207.909 2.822 2.822 0 0 0 2.192-.943 3.562 3.562 0 0 0 .859-2.461 3.447 3.447 0 0 0-.859-2.461 2.827 2.827 0 0 0-2.224-.927 2.759 2.759 0 0 0-2.225.978 3.578 3.578 0 0 0-.826 2.41 3.466 3.466 0 0 0 .876 2.495z" class="cls-1" transform="translate(-376.017 -279.793)"/>
    </g>
    <g id="Group_341" transform="translate(238.002 19.652)">
        <path id="Path_27" d="M436.205 239.932v-.967h4.253v.967h-1.608v5.256h-1.037v-5.256zm5.255 5.256v-6.223h1.021l2.3 4.893h.1l2.3-4.893h1.02v6.223h-1v-4.08h-.052l-1.9 4.08h-.829l-1.9-4.08h-.053v4.08z" class="cls-1" transform="translate(-436.205 -238.965)"/>
    </g>
    <path id="Path_28" fill="url(#linear-gradient)" d="M93.589 235.49v-8.929l27.883-15.886 27.69 16v4.625L105.1 256.561l16.272 9.384 20.119-11.583V249.4l-20.119 11.639-7.571-4.468 35.361-20.471v22.726l-27.786 15.886-27.787-15.883v-4.578l44.045-25.263-4.3-2.537L93.589 249.4v-8.936l32.13-18.313-4.344-2.592z" transform="translate(-93.589 -210.675)"/>
</svg>
