<svg xmlns="http://www.w3.org/2000/svg" width="27.079" height="22" viewBox="0 0 27.079 22">
    <path fill="rgba(0,0,0,0.6)" d="M18.093 0h1.27l.464.093a4.963 4.963 0 0 1 .842.237 5.992 5.992 0 0 1 .731.341 6.965 6.965 0 0 1 .642.4 3.952 3.952 0 0 1 .513.425.711.711 0 0 0 .7.117 9.373 9.373 0 0 0 1.026-.305q.549-.2 1.087-.44t.654-.31l.122-.073V.478l.024-.012.032-.014.024-.012.024-.012V.421h.014V.414L26.3.4h.024v.037l-.014.027L26.3.5l-.012.037-.012.024-.012.024-.012.037a.85.85 0 0 0-.024.1 4.1 4.1 0 0 1-.232.488 6.107 6.107 0 0 1-.549.867 4.262 4.262 0 0 1-.591.664q-.264.227-.349.317a1.048 1.048 0 0 1-.208.171l-.122.081-.024.012-.024.012v.007h-.014v.007l-.024.012-.024.012v.007h-.014v.014h-.014V3.4h.122l.684-.147a12.235 12.235 0 0 0 1.306-.354l.659-.22.073-.024.037-.012.024-.012.024-.012.024-.012.024-.012.049-.007h.049v.049h-.012l-.012.007v.007h-.014v.014h-.014v.014h-.007l-.012.024-.012.024h-.007l-.31.415a3.432 3.432 0 0 1-.33.415q-.024.007-.068.073a7 7 0 0 1-.518.545 12.289 12.289 0 0 1-.933.847 1.156 1.156 0 0 0-.526.978q-.007.542-.056 1.226T24.1 8.7a17.612 17.612 0 0 1-.415 1.795A16.316 16.316 0 0 1 23 12.453a15.219 15.219 0 0 1-.842 1.709q-.44.757-.806 1.282t-.745.989q-.378.464-.957 1.045t-.635.635q-.056.054-.479.4t-.9.7a10.451 10.451 0 0 1-.884.579q-.4.232-.972.53a11.562 11.562 0 0 1-1.226.557q-.659.256-1.392.476a12.713 12.713 0 0 1-1.416.342q-.684.122-1.55.208l-.867.085V22H7.74v-.012l-.208-.012q-.208-.012-.342-.024t-1.013-.134q-.879-.122-1.38-.244t-1.489-.464a14.491 14.491 0 0 1-1.692-.691q-.7-.347-.879-.44t-.4-.225l-.22-.134v-.007H.11L.1 19.6v-.007l-.024-.012-.027-.011v-.007H.035v-.014H0V19.5h.024l.024.007.11.012q.11.012.6.037t1.038 0a10.918 10.918 0 0 0 1.123-.11 12.654 12.654 0 0 0 1.355-.293 10.013 10.013 0 0 0 1.436-.493q.652-.288.928-.43a9.034 9.034 0 0 0 .835-.518l.562-.378v-.007h.014v-.014h.014v-.007l.024-.007h.024v-.024l.007-.024h.007v-.007l-.2-.012-.378-.024a3.671 3.671 0 0 1-.574-.11 5.507 5.507 0 0 1-.842-.293 6.494 6.494 0 0 1-.879-.464 4.326 4.326 0 0 1-.618-.447q-.188-.176-.488-.5a4.94 4.94 0 0 1-.518-.667 5.989 5.989 0 0 1-.42-.789l-.2-.444-.012-.037-.012-.037-.007-.024v-.024h.037l.037.007.269.037a5.968 5.968 0 0 0 .842.024 6.522 6.522 0 0 0 .794-.049q.22-.037.269-.049L5.3 13.3l.061-.012.061-.012v-.007h.014v-.007l-.036-.028-.049-.012-.051-.012-.05-.01-.05-.015q-.049-.012-.171-.049t-.659-.269a5.041 5.041 0 0 1-.855-.452 5.9 5.9 0 0 1-.606-.481 6.91 6.91 0 0 1-.628-.679 4.884 4.884 0 0 1-.61-.964 5.866 5.866 0 0 1-.4-1.05 5.668 5.668 0 0 1-.176-1.013l-.045-.512h.024l.024.007.024.012.024.012.024.012.024.012.378.171a4.775 4.775 0 0 0 .94.293q.562.122.671.134l.11.012h.22v-.007h-.014V8.36h-.014v-.007l-.024-.012-.024-.012v-.007H3.43L3.4 8.3v-.007l-.03-.016-.024-.012v-.007L3.13 8.1a3.2 3.2 0 0 1-.42-.4q-.22-.244-.44-.513a3.959 3.959 0 0 1-.391-.574 6.956 6.956 0 0 1-.361-.776 5.512 5.512 0 0 1-.285-.937 5.379 5.379 0 0 1-.11-.94 5.92 5.92 0 0 1 .024-.794 5.186 5.186 0 0 1 .147-.745 5.8 5.8 0 0 1 .317-.879l.208-.464.012-.037L1.844 1h.007V.986h.014V1h.014v.014h.007l.012.024.012.024h.007v.007l.33.366q.33.366.781.818a4.592 4.592 0 0 0 .5.469.358.358 0 0 1 .122.112 4.984 4.984 0 0 0 .488.432q.415.342 1.087.794t1.489.891a14.533 14.533 0 0 0 1.758.794q.94.354 1.319.464t1.294.281q.916.171 1.38.22t.635.056h.171v-.037l.029-.014-.049-.305a5.738 5.738 0 0 1-.049-.855 5.6 5.6 0 0 1 .085-1.013 6 6 0 0 1 .256-.94 5.022 5.022 0 0 1 .335-.764 7.518 7.518 0 0 1 .435-.652 5.265 5.265 0 0 1 .7-.757 5.135 5.135 0 0 1 .977-.7 6.349 6.349 0 0 1 1.004-.46 4.722 4.722 0 0 1 .781-.208A2.716 2.716 0 0 0 18.093 0z"/>
</svg>
