<svg xmlns="http://www.w3.org/2000/svg" id="linkedin" width="22" height="22" viewBox="0 0 22 22">
    <defs>
        <style>
            .cls-1{fill:rgba(0,0,0,.6)}
        </style>
    </defs>
    <path id="Path_194" d="M22.7 22.631h.006v-8.069c0-3.947-.85-6.988-5.464-6.988a4.79 4.79 0 0 0-4.315 2.371h-.064v-2H8.489V22.63h4.556v-7.273c0-1.915.363-3.767 2.734-3.767 2.337 0 2.371 2.185 2.371 3.889v7.151z" class="cls-1" transform="translate(-.707 -.631)"/>
    <path id="Path_195" d="M.4 7.977h4.557v14.688H.4z" class="cls-1" transform="translate(-.033 -.665)"/>
    <path id="Path_196" d="M2.642 0a2.654 2.654 0 1 0 2.642 2.642A2.643 2.643 0 0 0 2.642 0z" class="cls-1"/>
</svg>
